<svg width="153" height="35" viewBox="0 0 153 35" fill="none" xmlns="http://www.w3.org/2000/svg">
<g opacity="0.87">
<path d="M0 14.4873H5.44415C12.0445 14.4873 15.9389 19.0184 15.9389 24.6369C15.9389 30.2232 12.0445 34.7543 5.44415 34.7543H0V14.4873ZM5.44415 31.1334C9.27777 31.1334 11.7118 28.4148 11.7118 24.6409C11.7118 20.8348 9.27777 18.1162 5.44415 18.1162H3.89447V31.1334H5.44415Z" fill="white"/>
<path d="M32.8878 29.8038C32.616 30.4966 30.3321 34.8182 25.038 34.8182C21.9955 34.8182 18.9245 32.8849 17.7359 29.836C17.3708 28.962 17.1882 27.9954 17.1882 27.0288C17.1882 22.7112 20.6892 19.2354 25.038 19.2354C29.2651 19.2354 32.7053 22.5581 32.8554 26.7267C32.8554 26.8798 32.8838 26.9966 32.8554 27.1214L21.6588 29.1433C22.2064 30.3798 23.4518 31.3182 25.038 31.3182C27.6546 31.3182 29.4193 29.4172 29.6303 28.7808L32.8878 29.8038ZM21.1152 26.2072L28.4457 24.9062C27.7155 23.4563 26.1333 22.5219 24.5512 22.6709C22.9407 22.7917 21.5411 24.0886 21.2044 25.7198L21.1152 26.2072Z" fill="white"/>
<path d="M47.2489 19.6543L41.9873 34.7579H38.0928L32.8271 19.6543H36.7216L40.036 29.1675L43.3503 19.6543H47.2489Z" fill="white"/>
<path d="M65.5366 14.4873V34.7583H61.6137L53.0053 20.8026V34.7583H49.1108V14.4873H53.0337L61.6421 28.443V14.4873H65.5366Z" fill="white"/>
<path d="M67.2405 27.2065C67.2405 22.9171 70.7698 19.4131 75.0903 19.4131C79.4391 19.4131 82.9401 22.9171 82.9401 27.2065C82.9401 31.4959 79.4432 35 75.0903 35C70.7698 35 67.2405 31.4959 67.2405 27.2065ZM79.1957 27.2065C79.1957 24.79 77.5243 23.0379 75.2404 23.0379C72.928 23.0379 71.285 24.79 71.285 27.2065C71.285 29.6231 72.928 31.3751 75.2404 31.3751C77.5243 31.3751 79.1957 29.6231 79.1957 27.2065Z" fill="white"/>
<path d="M94.6234 33.1877C94.6234 33.1877 92.9804 35.0001 90.3354 35.0001C87.7189 35.0001 85.7108 33.7314 85.7108 30.5898V23.1267H83.8528V19.6549H85.7108V14.6083L89.6052 14.5156V19.6549H93.1954V23.1267H89.6052V29.4098C89.6052 30.6462 90.3354 31.4034 91.1874 31.4034C92.2218 31.4034 92.952 30.5898 92.952 30.1065L94.6234 33.1877Z" fill="white"/>
<path d="M110.352 29.8038C110.08 30.4966 107.796 34.8182 102.502 34.8182C99.4593 34.8182 96.3884 32.8849 95.1998 29.836C94.8346 28.962 94.6521 27.9954 94.6521 27.0288C94.6521 22.7112 98.1531 19.2354 102.502 19.2354C106.729 19.2354 110.169 22.5581 110.319 26.7267C110.319 26.8798 110.348 26.9966 110.319 27.1214L99.1226 29.1433C99.6703 30.3798 100.916 31.3182 102.502 31.3182C105.118 31.3182 106.883 29.4172 107.094 28.7808L110.352 29.8038ZM98.579 26.2072L105.91 24.9062C105.179 23.4563 103.597 22.5219 102.015 22.6709C100.405 22.7917 99.005 24.0886 98.6683 25.7198L98.579 26.2072Z" fill="white"/>
<path d="M153 1.38147V4.34177H122.169V1.38147C122.169 0.620253 122.79 0 123.56 0H151.609C152.38 0 153 0.620253 153 1.38147Z" fill="white"/>
<path d="M122.169 6.625V33.5698C122.169 34.335 122.79 34.9512 123.56 34.9512H151.609C152.38 34.9512 153 34.335 153 33.5698V6.625H122.169ZM134.672 23.827L127.796 17.2418V16.6095L134.672 10.0525L136.68 12.1952L131.629 16.9397L136.708 21.6561L134.672 23.827ZM147.442 23.251L140.562 29.808L138.554 27.6612L143.605 22.9207L138.522 18.2044L140.562 16.0295L147.442 22.6146V23.251Z" fill="white"/>
</g>
</svg>
