<svg id="Capa_1" enable-background="new 0 0 512 512" height="512" viewBox="0 0 512 512" width="512" xmlns="http://www.w3.org/2000/svg"><g><circle cx="256" cy="256" fill="#b7c5c8" r="248.5"/><circle cx="256" cy="256" fill="#fff" r="218.5"/><path d="m256 67.5v377c104.106 0 188.5-84.394 188.5-188.5s-84.394-188.5-188.5-188.5z" fill="#276ed9"/><path d="m414.5 256c0-104.106-70.963-188.5-158.5-188.5-104.106 0-188.5 84.394-188.5 188.5s84.394 188.5 188.5 188.5c87.537 0 158.5-84.394 158.5-188.5z" fill="#4388f0"/><path d="m306.425 185.424c-3.087-3.087-6.89-4.443-10.612-4.415v149.98c3.722.028 7.525-1.327 10.612-4.415l70.575-70.574z" fill="#d9f9ff"/><path d="m302.503 326.576 44.497-70.576-44.497-70.576c-1.947-3.087-4.344-4.443-6.691-4.415-7.672.058-15 6.023-15 15.023v14.968h-145.812v90h145.812v14.967c0 9 7.328 14.966 15 15.023 2.347.028 4.745-1.327 6.691-4.414z" fill="#fff"/><path d="m256 452c108.075 0 196-87.925 196-196s-87.925-196-196-196-196 87.925-196 196 87.925 196 196 196zm0-377c99.804 0 181 81.196 181 181s-81.196 181-181 181-181-81.196-181-181 81.196-181 181-181z"/><path d="m437.02 74.98c-48.352-48.351-112.64-74.98-181.02-74.98s-132.668 26.629-181.02 74.98c-48.351 48.353-74.98 112.64-74.98 181.02s26.629 132.667 74.98 181.02c48.352 48.351 112.64 74.98 181.02 74.98s132.668-26.629 181.02-74.98c48.351-48.353 74.98-112.64 74.98-181.02s-26.629-132.667-74.98-181.02zm-181.02 422.02c-132.888 0-241-108.112-241-241s108.112-241 241-241 241 108.112 241 241-108.112 241-241 241z"/><path d="m415.806 96.194c-42.686-42.686-99.44-66.194-159.806-66.194-54.612 0-107.336 19.748-148.458 55.605-3.122 2.722-3.446 7.46-.725 10.582 2.724 3.123 7.462 3.445 10.582.724 38.391-33.475 87.614-51.911 138.601-51.911 116.346 0 211 94.654 211 211s-94.654 211-211 211-211-94.654-211-211c0-50.987 18.436-100.209 51.91-138.6 2.723-3.122 2.398-7.86-.724-10.582-3.12-2.721-7.858-2.398-10.581.724-35.857 41.123-55.605 93.846-55.605 148.458 0 60.367 23.508 117.12 66.194 159.806s99.44 66.194 159.806 66.194 117.12-23.508 159.806-66.194 66.194-99.439 66.194-159.806-23.508-117.12-66.194-159.806z"/><path d="m135 308.5h138.313v7.467c0 9.274 5.322 17.241 13.891 20.79 2.872 1.189 5.836 1.77 8.755 1.77 5.793 0 11.409-2.288 15.771-6.648l70.575-70.576c2.929-2.929 2.929-7.678 0-10.606 0 0-70.575-70.576-70.576-70.576-6.557-6.558-15.955-8.429-24.523-4.878-8.568 3.549-13.892 11.516-13.892 20.79v7.467h-138.314c-4.143 0-7.5 3.358-7.5 7.5v90c0 4.142 3.357 7.5 7.5 7.5zm7.5-90h138.313c4.143 0 7.5-3.358 7.5-7.5v-14.967c0-4.652 3.545-6.482 4.632-6.932 1.087-.449 4.889-1.662 8.177 1.626l65.272 65.273-65.271 65.272c-3.29 3.29-7.091 2.078-8.178 1.626-1.087-.45-4.632-2.28-4.632-6.932v-14.966c0-4.142-3.357-7.5-7.5-7.5h-138.313z"/></g></svg>