<svg enable-background="new 0 0 24 24" height="512" viewBox="0 0 24 24" width="512" xmlns="http://www.w3.org/2000/svg"><path d="m18.5 0h-13c-3.032 0-5.5 2.467-5.5 5.5s2.468 5.5 5.5 5.5h13c3.032 0 5.5-2.467 5.5-5.5s-2.468-5.5-5.5-5.5z" fill="#00bcd4"/><circle cx="5.5" cy="5.5" fill="#fafafa" r="2.5"/><path d="m18.5 13h-13c-3.032 0-5.5 2.467-5.5 5.5s2.468 5.5 5.5 5.5h13c3.032 0 5.5-2.467 5.5-5.5s-2.468-5.5-5.5-5.5z" fill="#607d8b"/><circle cx="18.5" cy="18.5" fill="#fafafa" r="2.5"/><path d="m18.5 11h-13c-3.033 0-5.5-2.468-5.5-5.5s2.467-5.5 5.5-5.5h13c3.033 0 5.5 2.468 5.5 5.5s-2.467 5.5-5.5 5.5zm-13-9.5c-2.206 0-4 1.794-4 4s1.794 4 4 4h13c2.206 0 4-1.794 4-4s-1.794-4-4-4z"/><path d="m5.5 8c-1.378 0-2.5-1.121-2.5-2.5s1.122-2.5 2.5-2.5 2.5 1.121 2.5 2.5-1.122 2.5-2.5 2.5zm0-3.5c-.551 0-1 .448-1 1s.449 1 1 1 1-.448 1-1-.449-1-1-1z"/><path d="m18.5 24h-13c-3.033 0-5.5-2.468-5.5-5.5s2.467-5.5 5.5-5.5h13c3.033 0 5.5 2.468 5.5 5.5s-2.467 5.5-5.5 5.5zm-13-9.5c-2.206 0-4 1.794-4 4s1.794 4 4 4h13c2.206 0 4-1.794 4-4s-1.794-4-4-4z"/><path d="m18.5 21c-1.378 0-2.5-1.121-2.5-2.5s1.122-2.5 2.5-2.5 2.5 1.121 2.5 2.5-1.122 2.5-2.5 2.5zm0-3.5c-.551 0-1 .448-1 1s.449 1 1 1 1-.448 1-1-.449-1-1-1z"/></svg>